# xmcd CD database file
#
# Track frame offsets:
#	150
#	29724
#	61241
#	87542
#	103398
#	130026
#	148630
#	169594
#	193648
#	223848
#	242345
#	266115
#	288120
#	309658
#	328524
#
# Disc length: 4667 seconds
#
# Revision: 0
# Processed by: cddbd v1.5.2PL0 Copyright (c) Steve Scherf et al.
# Submitted via: CDex 1.70beta2
#
DISCID=e312390f
DTITLE=Millennium Eagle Jazz Band - Black Bottom Stomp
DYEAR=2010
DGENRE=Jazz
TTITLE0=Climax Rag
TTITLE1=That’s A Plenty
TTITLE2=Go To New Orleans
TTITLE3=I Double Dare You
TTITLE4=Memphis Blues
TTITLE5=Hesitating Blues
TTITLE6=Black Bottom Stomp
TTITLE7=Wild Cat Blues
TTITLE8=Let the light from the Lighthouse shine on Me
TTITLE9=Black Cat on the Fence
TTITLE10=Digga Digga Do
TTITLE11=My Mother's Eyes
TTITLE12=East Coast Trot
TTITLE13=The Moose March
TTITLE14=Chattanooga Stomp
EXTD=YEAR: 2010
EXTT0=
EXTT1=
EXTT2=
EXTT3=
EXTT4=
EXTT5=
EXTT6=
EXTT7=
EXTT8=
EXTT9=
EXTT10=
EXTT11=
EXTT12=
EXTT13=
EXTT14=
PLAYORDER=
